<svg class="chakra-icon css-qip50i" viewBox="0 0 1024 1024" xmlns="http://www.w3.org/2000/svg" width="200" height="200" focusable="false"><path d="M514.175 1024a457.891 192.49 0 1 0 0-384.979 457.891 192.49 0 1 0 0 384.979Z" fill="#2F82F5"></path><path d="M56.386 623.774h69.996V835.86H56.386zm845.786.46h69.996v212.342h-69.996z" fill="#2F82F5"></path><path d="M514.226 860.42a457.891 192.49 0 1 0 0-384.979 457.891 192.49 0 1 0 0 384.979Z" fill="#92BDFA"></path><path d="M377.15 920.387s63.396 11.564 142.909 10.643a862.876 862.876 0 0 0 172.074-18.42c61.246-12.894 116.66-36.891 116.66-36.891v23.997s-43.748 24.765-116.66 37.454c-72.913 12.69-122.494 19.443-172.074 18.42-62.475-1.28-142.909-9.773-142.909-9.773v-25.43zM161.329 891.222a30.751 29.165 90 1 0 58.33 0 30.751 29.165 90 1 0-58.33 0Z" fill="#FFF"></path><path d="M514.226 817.542a457.891 193.666 0 1 0 0-387.332 457.891 193.666 0 1 0 0 387.332Z" fill="#0166F3"></path><path d="M56.386 406.469h69.996v214.337H56.386zm845.786-4.094h69.996v225.953h-69.996z" fill="#0166F3"></path><path d="M514.226 646.696a457.891 193.666 0 1 0 0-387.332 457.891 193.666 0 1 0 0 387.332Z" fill="#92BDFA"></path><path d="M377.15 711.474s63.396 11.614 142.909 10.642a862.927 862.927 0 0 0 172.074-18.42c61.246-12.894 116.66-36.84 116.66-36.84v23.946s-43.748 24.765-116.66 37.505c-72.913 12.69-122.494 19.444-172.074 18.42-62.475-1.33-142.909-9.824-142.909-9.824v-25.43zM161.329 676.066a30.751 29.165 90 1 0 58.33 0 30.751 29.165 90 1 0-58.33 0Z" fill="#FFF"></path><path d="M514.226 603.46a457.891 201.136 0 1 0 0-402.272 457.891 201.136 0 1 0 0 402.273Z" fill="#939FAE"></path><path d="M56.386 209.067h69.996v193.257H56.386zm845.837 6.14h69.996v172.074h-69.996z" fill="#939FAE"></path><path d="M514.277 402.273a457.891 201.136 0 1 0 0-402.273 457.891 201.136 0 1 0 0 402.273Z" fill="#D5DBE4"></path><path d="M377.252 486.135s63.396 11.564 142.91 10.643a862.927 862.927 0 0 0 172.073-18.42c61.246-12.945 116.66-36.891 116.66-36.891v23.946s-43.748 24.816-116.66 37.505c-72.913 12.69-122.493 19.443-172.074 18.42-62.474-1.33-142.909-9.824-142.909-9.824v-25.328zM161.329 461.012a30.751 29.165 90 1 0 58.33 0 30.751 29.165 90 1 0-58.33 0Z" fill="#FFF"></path><path d="M514.226 603.46a457.891 201.136 0 1 0 0-402.272 457.891 201.136 0 1 0 0 402.273Z" fill="#2F82F5"></path><path d="M56.386 209.067h69.996v193.257H56.386zm845.837 6.14h69.996v172.074h-69.996z" fill="#2F82F5"></path><path d="M514.277 402.273a457.891 201.136 0 1 0 0-402.273 457.891 201.136 0 1 0 0 402.273Z" fill="#92BDFA"></path><path d="M514.328 299.632a224.161 98.445 0 1 0 0-196.89 224.161 98.445 0 1 0 0 196.89ZM377.252 486.135s63.396 11.564 142.91 10.643a862.927 862.927 0 0 0 172.073-18.42c61.246-12.945 116.66-36.891 116.66-36.891v23.946s-43.748 24.816-116.66 37.505c-72.913 12.69-122.493 19.443-172.074 18.42-62.474-1.33-142.909-9.824-142.909-9.824v-25.328zM161.329 461.012a30.751 29.165 90 1 0 58.33 0 30.751 29.165 90 1 0-58.33 0Z" fill="#FFF"></path></svg>