<svg class="chakra-icon css-qip50i" viewBox="0 0 1024 1024" xmlns="http://www.w3.org/2000/svg" width="200" height="200" focusable="false"><path d="M732.928 241.1c0 8.551 9.882 15.463 22.17 15.463 12.236 0 22.17-6.912 22.17-15.462v-78.592c0-8.55-9.934-15.463-22.17-15.463H642.56c-12.288 0-22.17 6.912-22.17 15.463 0 8.601 9.933 15.462 22.17 15.462h60.877l-194.1 135.68-60.057-41.984a27.904 27.904 0 0 0-15.667-4.454h-.051a27.443 27.443 0 0 0-15.616 4.557L211.968 416.256c-8.653 6.042-8.653 15.872.102 21.862a27.802 27.802 0 0 0 15.616 4.506 27.648 27.648 0 0 0 15.719-4.557L433.664 304.59l60.006 41.881c8.295 5.837 23.04 5.837 31.335 0l207.923-145.203v39.834zm-47.565 69.94h92.877v297.728h-92.877V311.04zm-155.29 61.184h92.929v236.544h-92.928V372.224zm-155.34 59.75h92.979v176.794h-92.98V431.974zm-155.29 65.485h92.928v111.309h-92.928V497.459z" fill="#1296db"></path><path d="M926.925 1024H89.958A64.41 64.41 0 0 1 25.6 959.642V64.358C25.6 28.826 54.426 0 89.958 0h836.916c35.481 0 64.307 28.826 64.358 64.358V959.59c0 35.584-28.826 64.41-64.307 64.41zm0-956.006H89.958V960.05h836.916V67.994z" fill="#1296db"></path><path d="M629.146 768h-394.24v-64h394.24v64zm168.96 128.051h-563.2v-64h563.2v64z" fill="#1296db"></path></svg>