<?xml version="1.0" encoding="utf-8" ?><svg xmlns="http://www.w3.org/2000/svg" xmlns:xlink="http://www.w3.org/1999/xlink" width="3770" height="1112" viewBox="0 0 3770 1112"><defs><linearGradient id="gradient_0" gradientUnits="userSpaceOnUse" x1="701.38434" y1="993.07245" x2="572.40759" y2="106.24866"><stop offset="0" stop-color="#744DE0"/><stop offset="1" stop-color="#42A9E2"/></linearGradient></defs><path fill="url(#gradient_0)" d="M635.345 93.2447C636.651 93.244 637.955 93.3542 639.243 93.5741C642.845 94.1957 653.668 98.8734 656.803 100.981C674.085 112.6 693.11 121.587 711.506 131.289C715.178 133.226 718.695 136.324 722.499 138.457L873.076 223.512C879.024 226.88 885.759 229.807 891.828 233.08C916.137 246.185 939.665 260.646 963.489 274.19C990.332 288.406 1016.54 303.75 1043.08 318.508C1050.34 322.546 1053.1 328.524 1053.25 336.802C1053.65 358.331 1052.78 379.999 1052.69 401.501L1052.69 519.808L1052.83 625.038C1053.12 651.665 1056.68 754.195 1051.1 772.576C1050.77 773.656 1050.21 776.348 1049.54 777.185C1046.56 780.861 950.613 832.341 939.574 838.553C924.09 847.267 909.02 857.024 893.553 865.866C811.156 912.871 728.494 959.41 645.57 1005.48C644.851 1005.74 637.856 1008.24 637.437 1008.08C618.622 999.473 599.568 987.911 581.292 977.418C573.246 972.798 564.272 967.996 556.297 963.459L358.245 848.722C353.075 845.718 349.012 842.882 344.206 839.387C340.528 836.864 332.731 834.91 329.421 832.529C297.16 809.311 255.592 793.444 224.438 769.403C223.066 756.873 223.72 724.779 223.863 711.265L224.194 623.013L224.216 413.016C224.222 397.808 222.859 333.971 225.459 321.681C229.722 314.649 296.135 280.387 308.149 273.752L495.901 169.745L592.468 116.197C603.183 110.311 625.191 96.9456 635.345 93.2447ZM766.104 742.974C770.528 753.725 770.299 765 763.364 774.812C760.474 778.06 759.972 778.531 756.261 780.773C753.341 782.996 751.918 783.304 751.625 787.498C750.269 806.898 751.376 826.574 749.922 845.984C749.65 849.618 747.875 853.071 747.324 856.286C744.557 863.034 713.939 878.126 705.962 882.236C691.092 889.899 671.483 903.821 656.18 908.96C655.248 909.958 654.054 911.235 652.599 912.791C649.924 928.154 651.577 945.954 651.272 961.621C651.248 962.86 651.795 965.558 651.975 966.389C656.138 966.847 664.969 962.126 667.974 959.198C669.166 957.365 728.157 926.429 735.075 920.899C742.784 914.736 791.001 896.117 789.825 884.789C788.25 869.606 789.837 856.615 790.052 841.847C790.443 814.98 789.802 788.647 788.727 761.878C791.169 743.2 790.774 724.906 790.412 706.14C789.97 683.196 795.908 678.461 817.592 677.845C817.066 690.491 817.601 703.111 817.532 715.767L817.983 831.552C818.019 840.486 818.246 850.045 817.769 858.963C817.523 863.571 814.761 867.602 815.025 872.459L816.618 873.393C822.697 872.857 863.638 851.337 866.49 844.801C867.677 842.082 867.19 819.878 867.217 814.54L867.193 730.104C867.271 717.771 869.082 704.663 868.696 692.377C867.293 685.249 868.351 656.275 866.289 651.062C861.64 639.305 845.746 639.821 845.717 618.162C845.691 598.7 864.445 593.639 865.771 585.569C869.988 559.916 863.321 528.757 868.061 502.74C870.496 491.639 917.567 471.918 926.21 463.257C931.352 458.67 931.003 447.518 933.756 443.066C959.386 401.621 1015.91 439.007 986.143 478.046C984.494 480.208 977.708 482.562 976.06 483.888C962.635 494.689 958.243 486.025 944.105 485.357C943.084 485.318 924.643 497.457 921.943 498.928C916.559 501.863 899.241 509.788 897.977 516.056C893.517 538.178 893.482 565.366 898.119 587.425C900.488 589.695 905.037 595.774 907.552 597.368C922.123 606.611 914.321 640.495 900.361 645.934C889.192 656.171 899.536 690.592 897.825 704.99C893.366 742.5 897.065 781.115 894.992 818.823C894.915 822.127 894.628 824.041 896.025 827.1C902.618 832.957 911.044 822.349 918.274 818.398C944.632 803.949 970.808 789.172 996.798 774.07C1002.89 770.499 1015.39 764.203 1019.9 760.123C1022.31 754.207 1022.94 741.453 1022.88 734.945C1021.63 614.536 1024.18 493.918 1021.41 373.598C1021.3 368.665 1023.82 363.329 1022.88 360.208C1013.56 355.121 918.793 422.785 901.819 417.578C896.175 415.846 879.33 404.171 873.218 400.564L801.829 358.703C795.543 354.94 782.493 347.884 780.684 340.665C789.308 333.059 814.211 319.894 825.446 313.082C845.133 301.145 867.773 286.831 888.416 276.515C891.323 275.063 893.347 274.602 894.733 271.4C893.903 264.983 886.126 261.459 880.762 258.726C868.387 252.419 855.683 242.987 842.071 240.019C839.953 239.558 828.582 244.823 826.19 246.285C784.905 271.525 742.1 294.283 700.3 318.38C694.058 321.98 681.649 326.713 677.007 331.259L677.132 332.874C680.706 339.056 680.35 336.995 685.143 340.066C702.222 351.009 702.231 355.279 722.186 349.246C742.093 343.228 763.911 359.533 763.267 381.324C762.978 391.104 786.481 398.091 793.08 403.349C804.344 411.449 857.367 438.045 860.01 447.845C858.281 450.547 676.951 552.521 658.697 563.126C656.643 564.436 652.419 566.486 652.296 568.585C651.063 589.634 652.311 614.689 652.203 635.509C651.682 686.568 651.584 737.63 651.906 788.691C651.896 814.666 650.901 845.281 652.172 870.785C650.951 873.436 650.657 873.715 650.752 876.533C651.542 877.127 651.979 877.765 653.001 877.746C659.15 877.626 711.299 848.1 716.951 842.225C717.613 841.537 718.743 840.468 719.173 839.625C721.694 834.69 720.131 792.027 720.009 783.547C709.066 775.973 699.372 762.844 703.645 748.533C712.023 720.474 753.444 717.025 766.104 742.974ZM919.577 382.29C926.036 376.568 932.957 376.148 938.668 372.297C951.933 363.353 965.858 356.698 979.414 348.373C985.536 344.614 1001.38 339.281 1003.66 333.221C1002.85 329.644 1001.51 328.087 998.05 326.052C985.885 318.897 973.551 312.624 961.165 305.739C951.765 300.514 941.501 293.931 931.778 289.39C929.843 288.486 921.17 289.262 918.523 289.455C909.955 294.883 833.423 338.562 831.785 342.89C833.736 346.689 895.677 382.601 905.441 384.72C908.407 385.364 915.981 383.242 919.577 382.29ZM922.72 675.409C935.529 652.862 963.057 644.292 985.828 657.841C986.89 661.619 987.347 662.567 986.521 666.439C978.49 677.22 954.639 660.795 943.968 677.324C935.783 690.003 937.833 702.208 948.474 712.863C950.339 714.487 958.95 716.195 961.874 716.857C969.166 713.54 984.688 703.817 991.294 713.623C994.284 723.961 979.52 731.396 971.808 733.297C956.18 737.148 941.877 732.819 931.274 720.889C928.593 717.874 925.001 716.408 922.661 712.645C918.23 702.163 919.044 686.12 922.72 675.409ZM370.263 275.224C347.232 278.838 329.461 296.75 308.11 306.056C300.72 309.277 277.179 320.81 273.082 327.171C275.31 332.686 357.142 377.989 368.452 384.993C371.383 385.307 375.789 385.278 378.322 384.031C389.072 378.739 464.161 338.793 466.099 333.834C465.006 329.434 379.732 279.279 370.263 275.224ZM460.155 692.068C470.116 695.961 491.705 709.226 501.274 714.704L586.234 763.55C595.395 768.791 611.819 779.407 620.725 782.637L621.853 781.46C621.983 778.229 621.922 779.276 621.509 776.516C619.838 765.347 620.606 745.676 620.56 734.062L619.915 611.95C619.912 596.586 621.373 583.906 620.924 567.05C613.986 557.898 591.166 546.352 580.728 540.16L524.689 506.726C516.373 501.781 482.611 480.665 475.307 477.739C467.607 474.376 461.452 467.707 456.147 468.975C450.991 477.249 452.87 513.214 454.132 524.128C454.5 527.311 456.846 530.279 460.244 530.761C474.691 544.963 482.129 561.439 465.542 578.119C463.898 579.747 462.206 581.328 460.471 582.86C457.697 584.594 455.811 585.442 454.066 588.2C453.005 599.157 453.018 611.465 452.954 622.501C452.836 642.997 453.517 663.529 453.297 684.027C453.272 686.432 458.161 690.903 460.155 692.068ZM371.008 418.402C354.571 408.905 338.215 399.016 321.464 390.066C303.124 380.266 271.937 356.646 251.379 354.04C250.44 361.732 254.803 360.054 253.804 367.413C249.111 401.853 253.855 434.802 253.924 468.97C253.987 500.464 252.592 532.538 252.647 564.071C252.666 574.851 269.19 580.381 277.877 585.483L365.874 636.068C367.865 637.222 371.683 640.478 373.324 641.164C385.559 646.274 409.113 664.872 419.946 667.682L421.298 667.194C427.381 644.991 425.153 629.816 424.107 607.482C423.832 601.616 426.908 589.913 424.177 584.416C415.884 573.886 403.482 565.065 407.251 549.457C408.457 544.461 414.737 534.479 419.535 531.27C421.47 529.688 424.264 527.087 424.756 524.656C428.709 505.144 420.572 462.391 427.978 444.622C429.118 439.904 433.999 436.792 438.003 434.374C493.196 401.042 550.176 370.73 606.164 338.75C608.874 337.202 611.748 335.036 613.445 332.378C612.854 330.215 611.62 329.42 609.462 328.243C574.668 309.665 540.328 290.25 506.471 270.015C491.867 261.484 477.694 251.684 462.61 243.937C456.946 241.028 450.523 234.051 443.533 232.464C437.917 234.669 403.142 251.957 400.656 254.979L399.83 257.474C406.712 269.697 523.958 322.523 521.625 336.541C517.292 340.624 505.026 347.286 499.407 350.219C484.353 358.078 469.544 367.97 454.624 375.754C430.675 388.247 407.963 402.221 384.557 415.6C381.026 417.619 375.151 417.98 371.008 418.402ZM339.52 754.813C333.544 755.677 329.94 756.812 324.161 754.689C298.28 745.182 288.207 706.456 316.772 693.293C328.389 687.94 349.734 693.783 357.026 704.602C361.236 710.848 363.397 724.419 370.718 729.144C444.289 771.325 516.799 815.57 590.744 857.024C598.864 861.576 610.05 871.361 618.97 873.006L620.186 872.231C621.951 863.32 621.448 832.114 621.699 821.34C620.6 819.578 618.888 816.885 617.164 815.785C583.259 794.156 547.113 773.718 512.413 753.596L375.057 673.419C353.955 661.123 265.947 606.173 250.06 603.071C250.464 609.234 253.512 612.952 253.525 616.454C253.673 659.669 254.731 703.054 253.81 746.242C253.764 748.411 253.27 753.856 255.152 755.023C300.607 783.194 349.7 810.514 395.9 836.868L567.972 936.327C578.462 942.284 610.636 963.674 620.702 963.617C625.775 960.654 620.147 955.759 620.436 949.333C620.716 943.122 623.947 913.165 620.092 910.002C601.484 894.73 578.108 884.11 558.002 870.344C545.411 861.723 527.363 853.555 514.069 845.754L401.176 778.383C394.73 774.578 357.195 750.726 355.091 750.421C350.664 749.778 343.616 753.23 339.52 754.813ZM638.591 351.419C633.261 356.413 618.789 363.618 611.68 367.624C569.022 391.661 526.076 415.306 483.194 438.93C480.835 440.23 478.296 442.236 476.825 444.509C482.893 454.055 529.034 477.042 541.141 484.019L608.611 523.268C616.826 528.119 628.058 536.605 636.859 539.886C638.675 540.563 644.151 537.675 646.701 536.981L647.468 536.511C653.569 532.825 659.749 531.123 665.613 527.816C671.834 524.308 677.946 519.997 684.241 516.34L736.854 486.118C739.981 484.31 755.533 477.199 756.945 475.917C764.554 469.01 803.209 450.945 806.762 445.019C804.606 438.565 762.11 418.461 754.201 412.772C753.164 412.026 745.258 409.737 743.522 409.252C731.87 412.642 722.016 416.241 710.389 409.948C702.074 405.211 696.707 396.178 693.587 387.407C692.873 385.398 692.102 377.377 690.946 376.34C679.312 365.904 663.109 360.168 649.708 352.07C647.598 350.795 641.039 351.262 638.591 351.419ZM634.507 124.291C605.853 141.684 576.608 156.96 548.122 173.657C534.59 181.588 481.44 208.674 475.251 215.375L475.093 218.671C481.421 225.546 621.666 304.113 639.861 314.464C640.425 314.785 647.746 313.809 649.398 313.508C666.682 304.29 803.372 230.604 809.843 223.366C808.849 219.545 806.712 217.996 803.244 216.111C750.897 187.648 700.029 156.406 647.564 128.127C644.19 126.309 640.839 124.997 637.025 124.538L636.187 124.432C635.627 124.385 635.067 124.338 634.507 124.291Z"/><path fill="#5C64ED" d="M746.273 600.995C752.543 590.105 762.258 571.125 777.394 579.382C780.06 582.718 777.862 615.562 777.929 622.412C778.015 631.282 781.345 648.16 774.649 654.536C769.699 656.188 766.45 654.903 762.255 652.276C761.226 642.307 759.588 640.264 760.074 628.424C760.457 610.588 756.948 619.281 747.781 611.559C745.624 608.684 746.225 604.762 746.273 600.995Z"/><path fill="#5C64ED" fill-opacity="0.9137255" d="M695.591 580.121C701.303 579.624 711.58 577.898 715.894 581.99C711.536 582.033 704.971 581.595 701.664 584.271C697.274 595.802 694.913 606.957 710.045 611.07L710.466 615.746L711.399 616.51L712.217 612.248C714.069 614.815 712.439 614.43 713.027 618.276C713.045 624.656 711.309 638.541 714.108 642.535C716.794 643.554 715.511 643.592 718.084 642.543C715.607 646.426 714.645 650.864 713.413 655.307C707.328 655.294 702.539 655.909 697.429 652.778C694.005 648.418 695.287 589.73 695.591 580.121Z"/><path fill="#5C64ED" fill-opacity="0.98431373" d="M746.273 600.995C746.225 604.762 745.624 608.684 747.781 611.559C756.948 619.281 760.457 610.588 760.074 628.424C758.994 624.525 758.533 621.062 755.387 618.616L753.792 618.172C746.926 622.621 747.405 655.966 732.577 634.889C729.617 630.683 727.259 623.274 723.428 620.112L721.224 621.082C719.113 628.936 717.225 634.428 718.084 642.543C715.511 643.592 716.794 643.554 714.108 642.535C711.309 638.541 713.045 624.656 713.027 618.276C715.538 617.9 726.947 614.421 728.682 612.617C728.784 609.286 728.664 606.202 728.549 602.878C734.04 604.918 736.647 611.754 741.149 609.977C744.381 606.186 743.849 604.185 746.273 600.995Z"/><path fill="#4F88E1" fill-opacity="0.98823529" d="M713.027 618.276C712.439 614.43 714.069 614.815 712.217 612.248L711.399 616.51L710.466 615.746L710.045 611.07C694.913 606.957 697.274 595.802 701.664 584.271C704.971 581.595 711.536 582.033 715.894 581.99C720.581 587.262 725.236 596.673 728.549 602.878C728.664 606.202 728.784 609.286 728.682 612.617C726.947 614.421 715.538 617.9 713.027 618.276Z"/><path fill="white" fill-opacity="0.011764706" d="M718.084 642.543C717.225 634.428 719.113 628.936 721.224 621.082L723.428 620.112C727.259 623.274 729.617 630.683 732.577 634.889C747.405 655.966 746.926 622.621 753.792 618.172L755.387 618.616C758.533 621.062 758.994 624.525 760.074 628.424C759.588 640.264 761.226 642.307 762.255 652.276C757.318 651.337 759.053 652.216 755.391 648.643C750.676 646.646 744.956 650.051 741.957 649.08C727.465 644.389 734.33 641.496 718.084 642.543Z"/><path fill="#4F88E1" d="M303.838 463.431C304.594 469.722 305.11 474.031 310.131 478.159C311.865 477.958 313.524 478.083 315.239 478.394C315.828 479.401 317.823 481.677 318.845 482.109C332.884 488.038 344.089 495.004 356.457 503.797C357.327 512.129 357.354 516.539 355.571 524.702C341.311 538.828 318.496 542.417 301.354 530.6C298.985 528.967 297.577 527.593 297.06 524.633C303.972 507.341 335.551 532.799 335.525 514.198C328.411 500.207 282.414 496.752 303.838 463.431Z"/><path fill="#4F88E1" d="M303.838 463.431C326.15 449.71 362.643 461.235 346.275 473.726C333.49 477.616 323.913 466.427 315.239 478.394C313.524 478.083 311.865 477.958 310.131 478.159C305.11 474.031 304.594 469.722 303.838 463.431Z"/><path fill="#5C64ED" d="M560.945 571.47C565.802 571.606 569.287 573.842 573.616 576.009C577.074 582.3 571.89 587.504 571.867 592.836C571.826 602.257 573.037 608.116 572.368 617.978L571.967 615.97C571.392 627.187 571.785 640.979 564.926 650.322C553.916 665.318 531.034 663.174 517.44 652.96C519.755 638.029 529.923 642.417 541.264 641.984C553.98 641.498 551.837 633.769 551.941 624.335C552.062 613.451 552.175 602.478 551.71 591.589C541.285 585.797 521.727 594.177 516.209 583.225C514.795 580.465 514.455 577.279 515.253 574.283C527.133 570.2 546.955 571.779 560.945 571.47Z"/><path fill="#4F88E1" d="M636.649 179.361C643.176 179.264 669.466 183.191 666.779 192.708C657.932 200.3 641.199 196.62 631.695 198.661C629.261 201.152 629.818 199.86 629.743 203.562C634.839 215.964 670.532 212.124 671.241 241.079C671.368 246.269 669.362 251.284 665.691 254.955C657.842 262.903 647.242 262.41 637.073 262.549C630.171 262.102 607.465 257.326 611.279 247.335C618.521 240.227 636.674 249.364 649.877 244.127C652.36 241.437 651.843 242.748 651.926 239.249C648.806 231.101 627.859 227.341 619.653 219.248C611.082 210.796 614.904 206.983 614.09 194.094C621.823 184.149 625.014 182.286 636.649 179.361Z"/><path fill="#4F88E1" d="M613.726 406.368C621.793 405.347 645.297 404.792 652.905 406.849C681.076 414.464 640.747 455.689 636.7 466.954C643.301 472.853 679.265 464.775 668.985 484.563C660.615 485.936 648.032 486.259 639.442 486.123C588.528 485.319 639.372 438.9 640.111 425.048C636.107 416.372 612.773 426.689 609.324 411.636C610.854 407.717 610.091 408.993 613.726 406.368Z"/><path fill="#5C64ED" d="M922.72 675.409C935.529 652.862 963.057 644.292 985.828 657.841C986.89 661.619 987.347 662.567 986.521 666.439C978.49 677.22 954.639 660.795 943.968 677.324C935.783 690.003 937.833 702.208 948.474 712.863C950.339 714.487 958.95 716.195 961.874 716.857C969.166 713.54 984.688 703.817 991.294 713.623C994.284 723.961 979.52 731.396 971.808 733.297C956.18 737.148 941.877 732.819 931.274 720.889C928.593 717.874 925.001 716.408 922.661 712.645C918.23 702.163 919.044 686.12 922.72 675.409Z"/><path fill="white" fill-opacity="0.011764706" d="M658.697 563.126C655.063 603.178 661.407 857.22 656.238 867.851C656.044 868.251 654.923 869.341 654.499 869.646C653.821 870.135 652.943 870.465 652.172 870.785C650.901 845.281 651.896 814.666 651.906 788.691C651.584 737.63 651.682 686.568 652.203 635.509C652.311 614.689 651.063 589.634 652.296 568.585C652.419 566.486 656.643 564.436 658.697 563.126Z"/><path fill="white" fill-opacity="0.0078431377" d="M894.992 818.823C897.065 781.115 893.366 742.5 897.825 704.99C899.536 690.592 889.192 656.171 900.361 645.934C900.356 653.297 900.203 661.746 900.553 669.064C908.897 682.517 910.139 675.365 922.72 675.409C919.044 686.12 918.23 702.163 922.661 712.645C918.122 712.341 909.233 711.336 905.204 712.42C896.744 721.463 906.189 801.335 899.8 816.283C897.992 818.06 897.501 818.039 894.992 818.823ZM907.722 698.751C907.89 694.228 908.749 688.143 906.698 684.372L902.927 683.162C902.651 688.309 901.632 693.892 904.589 697.85L907.722 698.751Z"/><path fill="white" fill-opacity="0.011764706" d="M460.155 692.068C458.161 690.903 453.272 686.432 453.297 684.027C453.517 663.529 452.836 642.997 452.954 622.501C453.018 611.465 453.005 599.157 454.066 588.2C455.811 585.442 457.697 584.594 460.471 582.86C458.909 609.091 459.804 636.391 459.625 662.682C459.59 667.842 460.475 689.271 460.155 692.068Z"/><path fill="white" fill-opacity="0.015686275" d="M419.535 531.27C419.422 527.998 420.223 518.333 420.338 513.033C420.799 491.869 418.471 468.758 420.599 447.902C420.846 445.478 423.841 446.877 426.429 443.794L427.978 444.622C420.572 462.391 428.709 505.144 424.756 524.656C424.264 527.087 421.47 529.688 419.535 531.27Z"/><path fill="white" fill-opacity="0.015686275" d="M460.244 530.761C456.846 530.279 454.5 527.311 454.132 524.128C452.87 513.214 450.991 477.249 456.147 468.975C461.452 467.707 467.607 474.376 475.307 477.739L474.522 477.908C468.486 479.15 464.497 477.161 460.621 478.663C455.867 488.863 461.263 519.642 460.244 530.761Z"/><path fill="white" fill-opacity="0.019607844" d="M747.324 856.286C747.875 853.071 749.65 849.618 749.922 845.984C751.376 826.574 750.269 806.898 751.625 787.498C751.918 783.304 753.341 782.996 756.261 780.773C756.569 796.609 758.531 843.57 751.304 855.131C749.939 855.608 748.761 856.099 747.324 856.286Z"/><path fill="white" fill-opacity="0.015686275" d="M667.974 959.198C664.969 962.126 656.138 966.847 651.975 966.389C651.795 965.558 651.248 962.86 651.272 961.621C651.577 945.954 649.924 928.154 652.599 912.791C654.054 911.235 655.248 909.958 656.18 908.96C656.683 920.921 656.266 932.868 656.982 944.801C657.564 954.514 657.195 958.221 667.974 959.198Z"/><path fill="white" fill-opacity="0.011764706" d="M766.104 742.974C779.029 744.1 778.427 755.681 777.664 765.648C773.514 769.835 769.656 774.997 763.364 774.812C770.299 765 770.528 753.725 766.104 742.974Z"/><defs><linearGradient id="gradient_1" gradientUnits="userSpaceOnUse" x1="3273.5017" y1="738.21924" x2="3273.0581" y2="287.96448"><stop offset="0" stop-color="#6B3CE0"/><stop offset="1" stop-color="#4170EC"/></linearGradient></defs><path fill="url(#gradient_1)" d="M3504.91 741.87C3503.22 742.222 3501.49 742.513 3499.83 742.99C3491.79 745.299 3427.03 744.554 3415.29 743.657C3411.81 743.391 3408.12 742.846 3404.91 741.442C3395.97 737.544 3371.1 661.567 3366.61 649.786C3363.93 647.681 3354.98 646.479 3351.54 646.428C3319.96 645.964 3288.42 646.575 3256.84 646.926C3233.91 647.18 3210.33 645.838 3187.35 646.269C3185.92 646.296 3181.69 647.572 3181.01 648.586C3176.9 654.089 3176.32 662.093 3173.42 667.962C3163.89 687.262 3154.2 724.079 3143.23 740.65C3140 745.525 3088.28 743.49 3079.94 743.405L3098.63 742.444C3089.17 742.426 3053.13 742.869 3046.05 741.252C3045.6 740.314 3045.18 739.338 3045.04 738.299C3044.47 734.097 3123.38 540.292 3132.87 516.365C3140.12 498.087 3146.63 479.481 3154.01 461.265C3157.42 452.838 3161.61 444.735 3165.11 436.345C3168.81 427.48 3171.48 418.226 3175 409.297C3178.29 400.945 3182.34 392.906 3185.62 384.528C3191.89 368.532 3218.6 296.602 3226.36 286.81C3236.62 283.655 3316.18 282.92 3325.24 286.637C3332.64 289.673 3432.63 563.35 3449.26 596.009L3449.76 596.98C3455.03 612.251 3462.8 628.97 3467.18 642.294C3471.83 654.333 3476.53 666.074 3481.53 677.962C3485.27 686.875 3487.26 697.598 3492.69 705.532C3493.35 706.494 3493.79 707.729 3494.18 708.836C3497.07 718.676 3503.07 732.191 3504.91 741.87ZM3280.25 568.061C3287.96 568.044 3332.2 569.03 3336.77 566.869C3337.95 562.451 3332.55 556.696 3331.49 552.252C3328.9 541.411 3325.8 532.668 3320.88 522.687C3317.79 516.414 3316.25 506.038 3313.09 499.457C3300.87 468.786 3289.63 438.756 3279.58 407.278C3278.08 405.829 3275.49 404.401 3273.51 403.984C3264.75 409.709 3263.03 421.948 3258.82 431.582C3248.97 454.12 3241.95 478.674 3232.84 501.477C3229.82 509.031 3208.21 562.571 3208.93 565.868C3214.7 569.382 3269.6 568.061 3280.25 568.061Z"/><path fill="white" fill-opacity="0.0078431377" d="M3273.51 403.984C3275.49 404.401 3278.08 405.829 3279.58 407.278C3289.63 438.756 3300.87 468.786 3313.09 499.457C3316.25 506.038 3317.79 516.414 3320.88 522.687C3325.8 532.668 3328.9 541.411 3331.49 552.252C3332.55 556.696 3337.95 562.451 3336.77 566.869C3332.2 569.03 3287.96 568.044 3280.25 568.061C3269.6 568.061 3214.7 569.382 3208.93 565.868C3208.21 562.571 3229.82 509.031 3232.84 501.477C3241.95 478.674 3248.97 454.12 3258.82 431.582C3263.03 421.948 3264.75 409.709 3273.51 403.984Z"/><path fill="#5C64ED" d="M2135.9 411.318C2143.8 409.141 2214.76 409.048 2222.62 411.815C2228.41 419.269 2219.48 440.969 2229.32 448.687C2232.72 448.917 2231.5 449.299 2234.02 447.466L2234.27 446.681C2238.75 433.216 2260.87 420.421 2273.21 414.458C2315.49 394.024 2383.24 401.848 2407.54 446.095C2411.29 452.915 2416.63 454.569 2423.93 452.426C2424.93 450.952 2426.66 448.152 2427.63 446.691C2435.7 435.376 2452.77 426.175 2463.91 417.902C2463.74 418.031 2489.71 407.906 2491.6 407.446C2519.37 400.704 2562.89 402.962 2586.26 418.958C2610.98 435.872 2624.09 457.936 2630.92 485.349C2632.18 491.215 2632.64 502.773 2633.96 506.643C2635.26 512.283 2636.23 517.613 2636.36 523.431C2637.24 565.516 2636.85 607.675 2636.74 649.772C2636.66 677.814 2636.75 705.859 2636.58 733.896C2636.56 738.099 2636.4 739.491 2634.06 742.889C2633.6 742.892 2632.96 742.877 2632.52 742.977C2623.69 744.999 2563.03 745.061 2552.31 743.591C2550.51 743.345 2546.41 742.603 2545.09 741.315C2540.1 736.473 2546.3 555.777 2542.69 531.248C2541.15 520.796 2537.07 508.6 2530.58 500.208C2523.46 490.886 2512.86 484.864 2501.2 483.527C2484.71 481.597 2470.75 484.306 2457.66 494.799C2423.78 521.947 2430.24 576.126 2430.38 615.129L2430.23 706.039C2430.28 716.149 2431.27 726.964 2430.54 736.995C2430.25 740.856 2428.73 741.359 2426.06 743.388C2413.71 744.35 2350.9 745.178 2342.78 741.656C2338.09 732.699 2342.76 602.956 2341.1 582.044C2337.81 540.372 2349.5 521.198 2312.35 487.715C2306.65 487.585 2307.05 486.189 2302.4 484.756C2275.2 476.374 2245.65 494.223 2235.29 519.65C2235.51 519.102 2228.3 542.949 2228.36 541.832C2227.49 557.989 2227.66 574.615 2227.37 590.818L2226.41 711.562C2226.42 717.724 2227.63 737.798 2224.91 741.955C2223.17 742.645 2221.39 743.215 2219.54 743.502C2211.9 744.682 2141.07 744.938 2137.96 742.392C2137.8 742.262 2137.66 742.118 2137.5 741.984C2136.7 741.284 2135.91 740.588 2135.14 739.855C2133.75 733.904 2136.62 693.902 2135.72 684.088C2135.24 678.948 2134.44 659.05 2134.36 653.499C2133.89 572.769 2134.41 492.036 2135.9 411.318Z"/><defs><linearGradient id="gradient_2" gradientUnits="userSpaceOnUse" x1="1429.6714" y1="744.89832" x2="1405.7534" y2="283.53119"><stop offset="0" stop-color="#6B4BEE"/><stop offset="1" stop-color="#448CF1"/></linearGradient></defs><path fill="url(#gradient_2)" d="M1412.94 280.396C1420.6 279 1441.34 279.585 1449.21 280.107C1488.04 282.683 1528.14 294.653 1561.93 314.108C1570.18 318.857 1583.79 326.736 1590.02 333.857C1590.06 336.648 1588.39 338.858 1586.89 341.339C1575.09 360.915 1565.71 382.273 1553.31 401.344C1551.38 404.309 1540.79 399.049 1538.26 397.556C1503.66 377.258 1468.54 362.52 1427.85 362.109C1398.25 361.81 1359.71 376.13 1362.96 411.881C1367.75 464.489 1457.55 468.644 1496.89 484.91C1521.68 495.163 1547.82 503.018 1567.88 522.646C1589.62 543.467 1600.5 567.119 1601.76 596.767C1604.73 636.335 1598.02 673.013 1568.72 701.886C1565.55 704.98 1561.78 708.966 1558.34 711.64C1519.85 741.514 1443.92 756.38 1394.75 746.933C1387.93 745.837 1380.53 745.632 1373.67 744.122C1352.02 739.362 1330.2 730.911 1310.18 721.449C1298.72 716.034 1288.86 709.492 1278.81 702.037C1274.73 699.013 1267.61 695.814 1263.39 692.444C1261.68 691.193 1261.4 689.727 1259.63 688.41C1252.34 682.97 1244.58 682.116 1249.41 671.228C1253.51 661.986 1261.36 654.034 1266.33 645.537C1273.14 633.904 1279.93 622.104 1286.49 610.302C1295.3 607.99 1305.97 619.41 1311.85 623.836C1352.65 654.535 1403.03 675.321 1454.85 666.91C1474.33 663.749 1491.39 657.115 1502.74 640.048C1508.33 631.83 1511.12 625.419 1509.35 615.602C1505.26 611.296 1506.71 611.372 1505 606.41C1495.62 579.175 1457.73 568.392 1433.45 561.146C1376.23 544.07 1311.45 533.636 1276.68 479.263C1269.75 468.426 1269.84 454.081 1264.18 442.344C1260.87 434.971 1260.39 413.237 1260.9 404.797C1266.05 390.21 1268.04 374.897 1273.96 360.735C1275.55 357.09 1283.5 346.605 1286.01 342.375C1288.68 337.191 1289.41 335.323 1293.42 331.375C1326.98 298.35 1364.67 283.97 1412.94 280.396Z"/><path fill="#5C64ED" d="M1815.36 410.148C1827.25 409.432 1844.57 409.961 1856.92 409.974L1934.78 410.056L2018.92 409.966C2029.12 409.934 2075.32 408.505 2080.55 412.535C2081.45 419.011 2081.7 462.712 2080.86 468.289L2080.75 468.958C2079.12 479.808 2033.48 529.338 2024.01 541.953C2001.06 572.555 1975.14 601.717 1951.41 631.91C1942.55 643.181 1930.73 659.261 1920.58 669.184C1934.97 671.096 1955.56 669.877 1970.43 670.18C2007.68 670.939 2047.99 668.699 2084.86 670.593C2085.08 690.938 2085.42 719.047 2084.67 739.988C2084.6 741.728 2081.08 742.121 2078.39 743.477L2077.95 743.703C2027.29 745.291 1968.61 743.81 1917.47 743.833L1850.57 743.928C1838.88 743.945 1822.65 744.426 1811.52 743.435C1810.91 739.824 1811.14 744.136 1808.17 740.016C1807.48 732.127 1805.97 684.098 1809.66 679.25C1848.46 628.19 1890.67 579.279 1931.04 529.499C1938.71 520.037 1959.01 497.368 1963.84 487.861C1957.21 479.463 1824.91 487.933 1815.44 481.593C1813.57 474.166 1812.81 416.542 1815.36 410.148Z"/><path fill="#5C64ED" d="M2694.58 525.756C2696.79 512.094 2700.32 511.331 2705.14 500.519C2742.23 417.304 2845.25 383.013 2927.78 416.075C2930.49 417.161 2934.72 417.694 2937.43 419.128C2959.45 432.888 2979.41 447.71 2995.26 468.533C2994.87 479.153 2962.53 495.458 2955.2 501.846C2922.33 530.528 2923.84 504.63 2896.24 490.004C2869.97 476.84 2835.53 480.092 2813.53 500.405C2747.16 561.5 2796.08 706.186 2897.05 661.644C2914.46 653.962 2927.9 625.891 2944.73 638.312C2950.74 642.739 3002.33 671.111 2997.88 678.136C2936.67 774.827 2784.32 770.805 2720.1 679.408C2707.66 661.746 2701.85 648.697 2694.38 629.228C2694.03 617.967 2688.31 588.854 2688.01 579.022C2687.78 571.568 2693.03 532.393 2694.58 525.756Z"/><path fill="#5C64ED" d="M1594.46 795.706C1619.93 793.414 1632.64 808.124 1656.81 782.563C1665.36 754.763 1661 678.818 1661.32 647.24L1661.53 520.425C1661.68 492.552 1662.99 464.298 1661.89 436.475C1661.64 430.225 1659.61 418.416 1661.49 412.699C1661.66 412.186 1663.4 411.071 1663.85 410.842C1668.86 408.298 1745.23 409.249 1750.25 411.75C1751.1 412.176 1751.59 412.734 1752.21 413.441C1754.14 427.191 1753.37 463.818 1753.38 478.584L1753.42 603.028L1753.71 692.066C1754.44 747.412 1758.31 815.193 1707.55 852.5C1681.37 871.742 1645.06 872.364 1614.3 867.914C1609.01 867.148 1601.12 865.286 1596.02 864.971C1593.45 859.455 1594.6 806.38 1594.46 795.706Z"/><defs><linearGradient id="gradient_3" gradientUnits="userSpaceOnUse" x1="3617.3394" y1="739.90564" x2="3565.6865" y2="288.32013"><stop offset="0" stop-color="#703BE9"/><stop offset="1" stop-color="#4771EE"/></linearGradient></defs><path fill="url(#gradient_3)" d="M3543.72 294.542C3544.94 287.461 3549.6 283.544 3556.26 284.591C3569.08 286.61 3634.84 281.8 3640.94 287.928C3643.14 313.793 3641.9 355.758 3641.94 382.871L3642.03 558.372L3642.05 676.152C3642.06 689.157 3642.97 731.86 3640.27 741.544C3632.59 744.736 3561.78 742.823 3547.29 743.92C3543.32 741.606 3541.51 741.162 3541.96 736.081C3543.2 722.019 3544.1 708.533 3544.08 694.412L3544.39 405.074C3544.24 369.779 3546.25 329.458 3543.72 294.542Z"/><path fill="#4F88E1" d="M1671.33 272.495C1672.45 272.415 1685.49 273.311 1686.43 273.471C1697.04 275.268 1745.62 270.517 1752.26 275.97C1753.31 283.319 1754.23 351.07 1752.58 354.755C1749.98 356.907 1748.21 356.858 1744.92 357.291C1734.71 357.261 1666.72 359.403 1662.3 354.87C1661.19 353.733 1662.41 343.429 1662.5 341.266C1663.34 319.087 1661.81 296.776 1660.32 274.658C1664.86 274.148 1666.89 273.693 1671.33 272.495Z"/><path fill="white" fill-opacity="0.011764706" d="M3547.29 743.92C3540.32 745.115 3534.05 745.297 3533.83 736.049C3533.94 730.56 3534.51 724.698 3535.14 719.208C3536.87 704.191 3534.39 689.657 3534.1 674.742C3533.89 664.362 3536.62 653.014 3534.51 642.64C3533.23 636.379 3533.36 631.541 3533.77 625.195C3534.11 638.848 3536.44 650.35 3536.32 663.851C3536.55 646.817 3536.91 629.267 3536.5 612.251C3536.25 601.644 3534.87 591.325 3534.83 580.445L3535.87 399.277C3535.89 378.699 3535.8 358.12 3535.62 337.542C3535.57 329.915 3533.06 288.798 3541.74 288.271C3543.85 290.887 3543.24 290.707 3543.72 294.542C3546.25 329.458 3544.24 369.779 3544.39 405.074L3544.08 694.412C3544.1 708.533 3543.2 722.019 3541.96 736.081C3541.51 741.162 3543.32 741.606 3547.29 743.92Z"/><path fill="white" fill-opacity="0.015686275" d="M2135.14 739.855C2133.81 741.993 2133.48 742.454 2131.19 742.71L2130.13 741.327C2128.41 732.227 2129.83 713.559 2129.8 703.521C2129.56 611.856 2129.63 520.212 2129.55 428.541C2129.54 423.833 2129.53 417.541 2130.93 413.064C2133.14 411.119 2132.42 411.725 2135.9 411.318C2134.41 492.036 2133.89 572.769 2134.36 653.499C2134.44 659.05 2135.24 678.948 2135.72 684.088C2136.62 693.902 2133.75 733.904 2135.14 739.855Z"/><path fill="white" fill-opacity="0.015686275" d="M2633.96 506.643C2642.63 509.229 2642.84 521.575 2643.04 529.462C2643.49 547.346 2643.3 565.355 2643.3 583.254C2643.38 615.67 2643.28 648.087 2643 680.502C2642.91 691.809 2643.87 732.595 2641.48 740.757C2638.6 743.19 2638.58 742.449 2634.06 742.889C2636.4 739.491 2636.56 738.099 2636.58 733.896C2636.75 705.859 2636.66 677.814 2636.74 649.772C2636.85 607.675 2637.24 565.516 2636.36 523.431C2636.23 517.613 2635.26 512.283 2633.96 506.643Z"/><path fill="white" fill-opacity="0.0078431377" d="M2694.38 629.228L2686.93 629.744C2683.74 627.297 2689.78 622.843 2682.2 613.297C2681.15 592.496 2678.8 547.931 2686.99 528.914C2689.54 526.495 2691.2 526.437 2694.58 525.756C2693.03 532.393 2687.78 571.568 2688.01 579.022C2688.31 588.854 2694.03 617.967 2694.38 629.228Z"/><path fill="white" fill-opacity="0.011764706" d="M1596.02 864.971C1592.45 865.961 1591.14 865.586 1589.18 862.78C1588.65 855.743 1588.23 799.368 1589.54 797.012L1594.46 795.706C1594.6 806.38 1593.45 859.455 1596.02 864.971Z"/><path fill="white" fill-opacity="0.011764706" d="M3449.76 596.98C3462.52 598.045 3466.9 604.08 3467.18 616.292C3467.38 625.082 3467.47 633.485 3467.18 642.294C3462.8 628.97 3455.03 612.251 3449.76 596.98Z"/><path fill="white" fill-opacity="0.0078431377" d="M3494.18 708.836C3502.96 710.253 3500.57 712.994 3507.89 715.393C3520.76 719.609 3509.43 724.281 3510.76 733.154C3510.95 734.469 3510.34 739.762 3510.22 741.508C3507.73 742.884 3508.44 742.424 3504.91 741.87C3503.07 732.191 3497.07 718.676 3494.18 708.836Z"/></svg>