<svg viewBox="0 0 36 36" fill="none" xmlns="http://www.w3.org/2000/svg" focusable="false" class="chakra-icon css-ge4a0p"><path fill="url(#questionClassify_svg__a)" d="M0 0h36v36H0z"></path><path d="M8.436 10.184c-.41.803-.434 1.838-.436 3.814h20c-.002-1.976-.027-3.011-.436-3.814a4 4 0 0 0-1.748-1.748C24.96 8 23.84 8 21.6 8h-7.2c-2.24 0-3.36 0-4.216.436a4 4 0 0 0-1.748 1.748ZM28 15.998H15.99V28h5.61c2.24 0 3.36 0 4.216-.436a4 4 0 0 0 1.748-1.748C28 24.96 28 23.84 28 21.6v-5.603ZM13.99 28V15.998H8V21.6c0 2.24 0 3.36.436 4.216a4 4 0 0 0 1.748 1.748c.802.409 1.836.434 3.806.436Z" fill="#fff"></path><defs><linearGradient id="questionClassify_svg__a" x1="18" y1="0" x2="5.5" y2="33" gradientUnits="userSpaceOnUse"><stop stop-color="#EB78FE"></stop><stop offset="1" stop-color="#C071FF"></stop></linearGradient></defs></svg>