<svg viewBox="0 0 36 36" fill="none" xmlns="http://www.w3.org/2000/svg" focusable="false" class="chakra-icon css-qip50i"><path fill="url(#textConcat_svg__a)" d="M0 0h36v36H0z"></path><path fill-rule="evenodd" clip-rule="evenodd" d="M9.128 10.048c-.428.824-.428 1.906-.428 4.07v7.764c0 2.164 0 3.246.428 4.07a3.8 3.8 0 0 0 1.62 1.62c.824.428 1.906.428 4.07.428h6.364c2.164 0 3.246 0 4.07-.428a3.8 3.8 0 0 0 1.62-1.62c.428-.824.428-1.906.428-4.07v-7.764c0-2.164 0-3.246-.428-4.07a3.8 3.8 0 0 0-1.62-1.62C24.428 8 23.346 8 21.182 8h-6.364c-2.164 0-3.246 0-4.07.428a3.8 3.8 0 0 0-1.62 1.62Zm4.52 2.918a1 1 0 1 0 0 2h8.704a1 1 0 0 0 0-2h-8.704Zm-1 5.167a1 1 0 0 1 1-1h8.704a1 1 0 1 1 0 2h-8.704a1 1 0 0 1-1-1Zm1 3.092a1 1 0 1 0 0 2h5.482a1 1 0 1 0 0-2h-5.482Z" fill="#fff"></path><path fill-rule="evenodd" clip-rule="evenodd" d="M10.7 13.404a3 3 0 0 1 2.948-2.438h8.704a3 3 0 0 1 2.947 2.438c-.002-.723-.011-1.242-.046-1.658-.043-.518-.115-.697-.156-.776a1.8 1.8 0 0 0-.767-.767c-.079-.041-.258-.113-.776-.156-.542-.045-1.256-.047-2.372-.047h-6.364c-1.116 0-1.83.002-2.372.047-.518.043-.697.115-.776.156a1.8 1.8 0 0 0-.767.767c-.041.079-.113.258-.156.776-.035.416-.044.934-.046 1.658Zm14.6 1.12a2.992 2.992 0 0 1-.79 1.526c.399.412.68.938.79 1.525v-3.05Zm0 4.167a3 3 0 0 1-2.948 2.442h-.427a3 3 0 0 1-2.795 4.092h-5.482a3.001 3.001 0 0 1-2.946-2.433c.003.623.013 1.084.045 1.462.043.518.115.697.156.776a1.8 1.8 0 0 0 .767.767c.079.041.258.113.776.156.542.045 1.256.047 2.372.047h6.364c1.116 0 1.83-.002 2.372-.047.518-.043.697-.115.776-.156a1.8 1.8 0 0 0 .767-.767c.041-.079.113-.258.156-.776.045-.542.047-1.256.047-2.372v-3.191Zm-14.6 2.976a2.991 2.991 0 0 1 .754-1.488 2.992 2.992 0 0 1-.754-1.488v2.976Zm0-4.092c.11-.587.391-1.113.79-1.525a2.992 2.992 0 0 1-.79-1.525v3.05Zm2.948-4.608h8.704a1 1 0 1 1 0 2h-8.704a1 1 0 0 1 0-2Zm0 4.166h8.704a1 1 0 1 1 0 2h-8.704a1 1 0 1 1 0-2Zm0 4.092h5.482a1 1 0 1 1 0 2h-5.482a1 1 0 1 1 0-2ZM8.7 14.118c0-2.164 0-3.246.428-4.07a3.8 3.8 0 0 1 1.62-1.62C11.572 8 12.654 8 14.818 8h6.364c2.164 0 3.246 0 4.07.428a3.8 3.8 0 0 1 1.62 1.62c.428.824.428 1.906.428 4.07v7.764c0 2.164 0 3.246-.428 4.07a3.8 3.8 0 0 1-1.62 1.62c-.824.428-1.906.428-4.07.428h-6.364c-2.164 0-3.246 0-4.07-.428a3.8 3.8 0 0 1-1.62-1.62c-.428-.824-.428-1.906-.428-4.07v-7.764Z" fill="#fff"></path><defs><linearGradient id="textConcat_svg__a" x1="18" y1="0" x2="5.5" y2="33" gradientUnits="userSpaceOnUse"><stop stop-color="#FFC75A"></stop><stop offset="1" stop-color="#FAA303"></stop></linearGradient></defs></svg>