<svg viewBox="0 0 36 36" fill="none" xmlns="http://www.w3.org/2000/svg" focusable="false" class="chakra-icon css-qip50i"><path fill="url(#httpRequest_svg__a)" d="M0 0h36v36H0z"></path><path fill-rule="evenodd" clip-rule="evenodd" d="M6.517 19.512a6.983 6.983 0 0 0 6.446 6.962v.013h.202a7.133 7.133 0 0 0 .67 0h9.153a6.18 6.18 0 0 0 2.866-11.802c-.75-2.98-3.385-5.18-6.52-5.18-2.317 0-4.36 1.201-5.572 3.03a6.982 6.982 0 0 0-7.245 6.977Zm3.352 2.003c.09.09.218.136.383.136.173 0 .303-.045.39-.136.086-.093.129-.225.129-.394v-1.11h1.64v1.11c0 .17.043.3.13.395.09.09.22.135.389.135.165 0 .291-.045.377-.136.09-.093.136-.225.136-.394v-3.016c0-.173-.045-.304-.136-.394-.086-.09-.212-.136-.377-.136-.17 0-.299.045-.39.136-.085.09-.129.221-.129.394v1.054h-1.64v-1.054c0-.173-.045-.304-.135-.394-.087-.09-.215-.136-.384-.136-.165 0-.293.045-.383.136-.09.09-.135.221-.135.394v3.016c0 .17.045.3.135.395Zm5.818 0c.09.09.218.136.383.136.173 0 .303-.045.39-.136a.552.552 0 0 0 .129-.388v-2.655h.885c.139 0 .244-.036.316-.108a.427.427 0 0 0 .112-.315c0-.14-.037-.244-.112-.316-.072-.071-.177-.107-.316-.107h-2.807c-.14 0-.246.036-.322.107-.07.072-.107.177-.107.316 0 .135.036.24.107.316.076.07.183.107.322.107h.885v2.655c0 .165.045.295.135.389Zm4.54.136c-.166 0-.294-.045-.384-.136a.538.538 0 0 1-.136-.388v-2.655h-.884c-.14 0-.247-.036-.322-.108a.44.44 0 0 1-.107-.315c0-.14.036-.244.107-.316.075-.071.182-.107.322-.107h2.807c.139 0 .244.036.315.107.075.072.113.177.113.316 0 .135-.038.24-.113.316-.071.07-.176.107-.315.107h-.885v2.655a.553.553 0 0 1-.13.389c-.086.09-.216.135-.389.135Zm2.759-.136c.09.09.218.136.383.136.173 0 .303-.045.389-.136a.553.553 0 0 0 .13-.388v-.897h.873c.451 0 .799-.114 1.043-.343.248-.233.372-.553.372-.959 0-.406-.124-.723-.372-.953-.244-.232-.592-.349-1.043-.349h-1.386a.539.539 0 0 0-.39.135c-.09.09-.135.22-.135.39v2.976c0 .165.045.295.136.389Zm1.595-2.08h-.693v-1.014h.693c.195 0 .346.041.45.124.106.083.159.21.159.383 0 .17-.053.297-.158.383-.105.083-.256.125-.451.125Z" fill="#fff"></path><defs><linearGradient id="httpRequest_svg__a" x1="18" y1="0" x2="5.5" y2="33" gradientUnits="userSpaceOnUse"><stop stop-color="#7895FE"></stop><stop offset="1" stop-color="#7177FF"></stop></linearGradient></defs></svg>