<?xml version="1.0" encoding="utf-8"?>
<svg xmlns="http://www.w3.org/2000/svg" width="1344" height="768" viewBox="0 0 1344 768">
  <path fill="white" d="M 208.738 245.169 L 1126.4 245.169 L 1126.4 507.077 L 208.738 507.077 L 208.738 245.169 Z" style=""/>
  <path fill="#6CAAC7" d="M324.408 256.486C330.808 258.336 352.628 271.322 359.473 275.299C384.245 289.541 408.757 304.23 432.999 319.358C434.539 356.829 433.423 400.791 433.328 438.761C398.322 459.804 363.137 480.547 327.777 500.99C324.707 502.292 312.626 494.084 309.399 492.181L279.885 474.744C261.264 463.763 235.848 450.107 218.561 437.997L218.516 319.364C222.295 316.834 226.306 314.379 230.223 312.061C261.615 293.488 293.419 275.741 324.408 256.486Z"/>
  <path fill="white" d="M379.036 295.276C381.82 295.804 391.629 302.437 394.57 304.369C387.02 308.794 368.516 319.058 363.117 324.306C368.001 328.828 389.934 341.229 396.518 344.736C405.87 339.754 416.237 332.877 425.808 327.539C426.549 341.333 426.189 355.962 426.141 369.818C426.018 391.349 426.027 412.881 426.17 434.412C417.895 440.355 402.805 448.591 393.658 453.916C393.303 437.803 393.153 421.687 393.207 405.571C400.17 399.619 400.823 395.081 393.526 389.081C393.463 382.55 393.498 376.018 393.631 369.488L404.445 362.291C407.072 362.396 412.624 362.744 414.814 361.579C428.814 354.135 405.865 334.191 402.113 355.717C396.887 358.657 391.563 362.073 386.444 365.249L386.556 388.845C379.601 395.198 378.436 399.23 386.469 405.54L386.631 457.615L372.799 465.877L372.79 455.221C372.758 441.311 373.391 426.861 372.973 413.035L366.237 416.915L366.085 469.441C353.975 477.048 341.758 484.485 329.439 491.749L329.605 475.885C337.384 471.898 347.792 465.468 355.531 461.003L355.353 442.269C358.437 439.128 362.729 433.132 358.818 429.722C350.018 422.05 334.419 430.95 348.358 442.319L348.332 457.063C341.962 460.556 335.676 464.199 329.479 467.989L329.442 384.909C335.911 379.885 344.799 374.966 351.963 370.8C362.732 364.633 373.385 358.265 383.916 351.699L358.951 336.306C358.724 326.652 352.907 323.871 344.278 327.025L334.87 321.845C349.797 313.334 364.523 304.476 379.036 295.276Z"/>
  <path fill="#6CAAC7" d="M341.171 386.955C347.077 387.723 348.907 391.826 352.075 396.334C353.886 393.582 357.871 385.79 361.478 387.807C363.806 391.706 363.61 404.468 359.701 407.108C358.095 405.905 358.58 406.129 357.879 403.718C357.687 401.064 358.037 399.918 356.744 397.917C354.997 398.462 352.965 401.86 351.748 403.556L345.931 394.486C345.888 399.157 346.341 403.504 343.525 407.35L342.664 406.983C340.405 401.841 341.03 392.777 341.171 386.955Z"/>
  <path fill="#6CAAC7" d="M408.337 406.269C411.413 406.346 414.138 405.974 416.127 408.642C413.886 412.034 404.27 410.328 403.333 417.632C406.156 426.684 411.945 423.272 417.876 421.702C419.958 436.646 381.874 421.1 408.337 406.269Z"/>
  <path fill="white" d="M273.78 294.643C275.865 294.784 315.73 319.299 320.153 321.99C309.729 329.248 277.565 344.657 271.726 352.868C271.289 359.792 271.402 366.173 271.484 373.087C265.1 380.556 264.8 382.76 271.499 390.198L271.075 412.235C261.837 407.271 252.734 402.06 243.775 396.608C237.749 393.039 231.396 389.431 225.716 385.374L225.754 327.263C236.487 333.105 247.408 339.757 258.192 345.759C271.161 337.368 283.482 330.383 296.449 322.349C291.129 317.916 269.843 305.873 262.736 301.596C265.862 299.399 270.451 296.714 273.78 294.643Z"/>
  <path fill="#6CAAC7" d="M241.648 355.095C244.006 354.944 249.185 354.694 250.289 357.044C248.104 360.027 243.174 359.858 239.716 360.128C244.679 362.917 253.181 365.762 252.98 372.002C252.083 374.198 250.51 375.054 248.594 376.421C245.488 376.811 239.276 376.521 237.531 373.597L238.514 372.403C241.398 371.011 245.179 371.233 248.45 371.16C242.117 366.361 232.137 362.781 241.648 355.095Z"/>
  <path fill="white" d="M225.904 394.15C230.037 395.692 251.4 408.974 256.124 411.814C278.12 425.047 300.19 438.155 322.333 451.139C322.359 456.471 322.354 461.803 322.318 467.135C301.247 456.158 279.961 441.471 259.166 429.682C254.413 426.987 251.511 415.306 242.498 417.334C241.046 417.653 239.789 418.555 239.022 419.828C235.285 425.897 239.885 432.104 245.185 435.153C247.667 434.117 250.403 432.657 252.906 434.205C275.443 448.149 300.305 461.155 322.26 475.831L322.274 491.418C310.97 485.921 293.324 474.752 282.233 468.114C263.695 457.019 243.956 445.867 225.791 434.423C225.687 420.999 225.724 407.573 225.904 394.15Z"/>
  <path fill="white" d="M278.294 358.134C290.106 364.031 310.197 376.91 322.225 383.963C322.331 390.843 323.148 439.855 321.237 441.887L319.099 441.2C305.462 433.098 291.866 424.929 278.311 416.691L278.247 390.809C278.545 390.528 278.84 390.244 279.133 389.957C286.04 383.2 284.601 379.842 278.213 373.515L278.294 358.134Z"/>
  <path fill="#6CAAC7" d="M293.286 386.642C297.752 386.336 304.378 386.523 309.011 386.521C309.478 397.308 311.875 406.895 298.612 409.5C297.08 409.032 295.885 408.19 294.826 407.036L295.217 405.695C297.929 404.077 301.267 403.833 304.421 403.356C304.706 399.485 304.718 395.082 304.819 391.162C298.756 391.5 295.939 392.769 293.286 386.642Z"/>
  <path fill="white" d="M325.181 264.455C329.393 264.851 366.538 287.743 372.556 291.563C357.74 299.877 343.185 308.593 328.461 317.083L327.761 317.325C322.836 316.252 288.7 294.747 281.875 290.628C295.043 282.01 311.345 273.123 325.181 264.455Z"/>
  <path fill="#6CAAC7" d="M322.817 281C325.791 280.824 330.161 280.579 332.172 283.007C330.225 286.085 324.933 285.799 321.539 286.05C327.306 290.386 343.085 296.133 329.24 302.708C326.416 302.762 320.52 302.732 319.115 299.899C321.506 296.694 327.215 297.372 330.933 297.354C323.918 292.246 314.067 290.378 322.817 281Z"/>
  <path fill="white" d="M327.662 326.083C330.514 326.62 337.804 331.215 340.563 332.87C341.389 342.523 345.37 345.486 354.643 342.337C360.321 345.502 364.889 348.179 370.319 351.733C355.63 360.342 340.998 369.048 326.424 377.85C325.629 377.884 287.397 355.043 282.996 352.472C296.016 344.002 314.007 334.103 327.662 326.083Z"/>
  <path fill="#6CAAC7" d="M318.271 340.887C323.302 340.519 329.903 339.075 332.069 344.568C331.792 349.763 327.666 353.97 324.446 358.177C330.043 358.115 331.992 357.072 335.493 361.809C332.28 362.796 325.89 363.426 322.947 361.76C318.75 356.243 325.514 349.272 328.907 344.812C323.952 344.991 320.36 346.028 318.271 340.887Z"/>
  <path fill="white" d="M255.339 305.89C262.77 309.357 275.724 317.586 282.83 322.02C274.733 326.424 265.661 332.083 257.59 336.833C255.052 336.501 233.156 323.321 229.738 321.316C237.318 316.241 247.336 310.629 255.339 305.89Z"/>
  <path fill="white" d="M401.501 308.378L422.167 321.003C415.074 325.863 404.408 331.697 396.731 336.139C394.459 335.957 378.641 326.275 375.135 324.398L401.501 308.378Z"/>
  <path fill="#33525D" d="M1006.06 307.955L1029.67 307.891C1034.76 320.72 1041.04 334.495 1046.45 347.349C1057.54 373.785 1068.41 400.315 1079.04 426.936C1070.7 427.064 1062.36 427.092 1054.02 427.021C1050.61 419.292 1047.26 410.269 1044.13 402.318L1033.1 402.264C1019.11 402.288 1005.12 402.233 991.137 402.1C987.869 409.626 984.482 418.983 981.372 426.763L957.6 426.846L1006.06 307.955Z"/>
  <path fill="white" d="M1017.34 334.652C1021.16 339.477 1033.3 373.705 1036.34 381.967L1018.17 382.053L998.681 382.052C1005.06 366.316 1011.28 350.516 1017.34 334.652Z"/>
  <path fill="#6CAAC7" d="M771.189 338.215C784.715 337.166 792.477 343.64 800.223 353.667C811.07 340.067 833.636 331.813 848.576 344.463C860.504 354.563 858.548 376.814 858.507 391.437L858.481 427.061C851.315 427.334 843.414 427.241 836.19 427.304C835.842 408.803 837.084 390.834 835.148 372.171C833.561 356.884 817.435 354.016 808.589 362.859C799.491 371.953 802.367 400.687 802.504 414.031L802.574 426.77L780.286 427.099C780.462 412.443 780.602 397.809 780.504 383.15C780.435 372.682 779.203 358.183 765.428 358.133C750.225 358.076 745.999 371.614 746.063 384.507C746.133 398.59 746.197 412.723 746.304 426.815C738.907 426.926 731.511 427.085 724.116 427.29C723.38 399.355 723.93 368.191 723.877 340.06L745.224 340.031L745.477 353.329C754.399 344.665 758.697 340.692 771.189 338.215Z"/>
  <path fill="#6CAAC7" d="M529.29 306.787C545.148 304.035 563.105 311.967 576.248 320.15L566.91 338.412C553.49 331.066 532.071 320.28 516.991 331.325C515.198 332.639 513.56 336.459 513.725 338.675C514.626 350.815 528.841 354.194 538.511 356.761C549.689 359.764 561.59 361.581 570.422 369.734C576.316 375.085 579.783 382.601 580.026 390.559C581.18 421.839 555.334 428.262 530.084 428.653C511.106 426.993 500.29 423.008 485.174 411.164L496.01 393.073C509.075 402.209 520.779 409.808 537.452 408.53C544.01 408.027 558.286 403.557 556.121 395.128C550.827 374.52 515.2 379.883 500.961 366.816C494.726 361.094 491.622 357.322 490.473 348.645C487.448 320.345 504.34 309.712 529.29 306.787Z"/>
  <path fill="#6CAAC7" d="M637.173 340.005C660.392 340.246 684.03 340.005 707.283 339.995C707.362 344.613 707.185 349.572 707.095 354.219C703.792 359.773 695.457 369.735 691.106 375.163L664.11 408.935L708.678 408.868C708.784 414.905 708.705 421.135 708.705 427.189L635.79 427.326C635.756 422.273 635.64 417.221 635.44 412.172C646.005 397.246 666.981 371.998 678.974 357.922C665.061 357.731 651.146 357.68 637.232 357.769L637.173 340.005Z"/>
  <path fill="#6CAAC7" d="M917.891 338.308C934.558 337.099 945.429 344.625 955.76 356.682C950.345 360.489 944.469 364.102 938.864 367.661C923.633 351.486 904.468 354.679 897.915 377.099C894.411 389.09 901.143 406.279 914.477 408.711C924.732 410.581 931.274 405.81 939.402 400.296L945.303 403.395C949.044 405.685 952.042 407.676 955.621 410.207C946.735 420.018 938.573 427.54 924.715 428.691C864.552 433.689 853.05 344.659 917.891 338.308Z"/>
  <path fill="#6CAAC7" d="M597.292 340.288C604.541 340.175 611.792 340.227 619.038 340.445C620.964 361.133 619.709 385.933 619.712 406.944C619.715 428.799 624.373 454.521 598.244 460.75C589.949 461.378 586.241 461.023 578.061 459.462L578.151 441.29C590.504 443.708 596.143 445.461 597.333 429.726C598.309 416.828 597.649 404.02 597.435 391.106C597.228 374.167 597.18 357.227 597.292 340.288Z"/>
  <path fill="#33525D" d="M1091.35 308.481L1114.48 308.462C1115.27 323.431 1114.97 340.372 1114.95 355.457L1114.76 426.547C1107.07 427.006 1099.12 426.848 1091.39 426.812L1091.35 308.481Z"/>
  <path fill="#6CAAC7" d="M597.235 305.175L619.501 305.103L619.448 326.267L597.2 326.256L597.235 305.175Z"/>
</svg>